<svg width="100" height="100" viewBox="0 0 100 100" fill="none" xmlns="http://www.w3.org/2000/svg">
<path d="M50 87.5C70.7107 87.5 87.5 70.7107 87.5 50C87.5 29.2893 70.7107 12.5 50 12.5M50 87.5C29.2893 87.5 12.5 70.7107 12.5 50C12.5 29.2893 29.2893 12.5 50 12.5M50 87.5C61.5059 87.5 66.4221 65.9874 66.4221 50C66.4221 34.0126 61.5059 12.5 50 12.5M50 87.5C38.4941 87.5 33.5789 65.9872 33.5789 50C33.5789 34.0128 38.4941 12.5 50 12.5M14.5828 37.4999C42.245 37.4999 57.754 37.4999 85.4162 37.4999M14.5828 62.5001C42.245 62.5001 57.754 62.5001 85.4162 62.5001" stroke="#4E36E1" stroke-width="1.5" stroke-linecap="round" stroke-linejoin="round"/>
</svg>
