<svg width="300" height="100" viewBox="0 0 300 100" fill="none" xmlns="http://www.w3.org/2000/svg">
<path d="M0 0H300V100H0V0Z" fill="#D9D9D9"/>
<path d="M92.642 64V42.1818H100.27C101.79 42.1818 103.043 42.4446 104.031 42.9702C105.018 43.4886 105.753 44.1882 106.236 45.0689C106.719 45.9425 106.96 46.9119 106.96 47.9773C106.96 48.9148 106.793 49.6889 106.46 50.2997C106.133 50.9105 105.7 51.3935 105.16 51.7486C104.627 52.1037 104.048 52.3665 103.423 52.5369V52.75C104.091 52.7926 104.762 53.027 105.437 53.4531C106.112 53.8793 106.676 54.4901 107.131 55.2855C107.585 56.081 107.812 57.054 107.812 58.2045C107.812 59.2983 107.564 60.282 107.067 61.1555C106.57 62.0291 105.785 62.7216 104.712 63.233C103.64 63.7443 102.244 64 100.526 64H92.642ZM95.2841 61.6562H100.526C102.251 61.6562 103.477 61.3224 104.201 60.6548C104.933 59.9801 105.298 59.1634 105.298 58.2045C105.298 57.4659 105.11 56.7841 104.734 56.1591C104.357 55.527 103.821 55.0227 103.125 54.6463C102.429 54.2628 101.605 54.071 100.653 54.071H95.2841V61.6562ZM95.2841 51.7699H100.185C100.98 51.7699 101.697 51.6136 102.337 51.3011C102.983 50.9886 103.494 50.5483 103.871 49.9801C104.254 49.4119 104.446 48.7443 104.446 47.9773C104.446 47.0185 104.112 46.2053 103.445 45.5376C102.777 44.8629 101.719 44.5256 100.27 44.5256H95.2841V51.7699Z" fill="black"/>
<path d="M118.461 64.3409C116.983 64.3409 115.687 63.9893 114.572 63.2862C113.464 62.5831 112.598 61.5994 111.973 60.3352C111.355 59.071 111.046 57.5937 111.046 55.9034C111.046 54.1989 111.355 52.7109 111.973 51.4396C112.598 50.1683 113.464 49.1811 114.572 48.478C115.687 47.7749 116.983 47.4233 118.461 47.4233C119.938 47.4233 121.23 47.7749 122.338 48.478C123.453 49.1811 124.32 50.1683 124.938 51.4396C125.563 52.7109 125.875 54.1989 125.875 55.9034C125.875 57.5937 125.563 59.071 124.938 60.3352C124.32 61.5994 123.453 62.5831 122.338 63.2862C121.23 63.9893 119.938 64.3409 118.461 64.3409ZM118.461 62.0824C119.583 62.0824 120.506 61.7947 121.23 61.2195C121.955 60.6442 122.491 59.8878 122.839 58.9503C123.187 58.0128 123.361 56.9972 123.361 55.9034C123.361 54.8097 123.187 53.7905 122.839 52.8459C122.491 51.9013 121.955 51.1378 121.23 50.5554C120.506 49.973 119.583 49.6818 118.461 49.6818C117.338 49.6818 116.415 49.973 115.691 50.5554C114.966 51.1378 114.43 51.9013 114.082 52.8459C113.734 53.7905 113.56 54.8097 113.56 55.9034C113.56 56.9972 113.734 58.0128 114.082 58.9503C114.43 59.8878 114.966 60.6442 115.691 61.2195C116.415 61.7947 117.338 62.0824 118.461 62.0824Z" fill="black"/>
<path d="M132.227 60.2926L140.111 47.6364H143.009V64H140.494V51.3438L132.654 64H129.713V47.6364H132.227V60.2926ZM138.449 42.1818H140.793C140.793 43.3324 140.395 44.2734 139.6 45.005C138.804 45.7365 137.725 46.1023 136.361 46.1023C135.019 46.1023 133.95 45.7365 133.154 45.005C132.366 44.2734 131.972 43.3324 131.972 42.1818H134.316C134.316 42.7358 134.468 43.2223 134.774 43.6413C135.086 44.0604 135.615 44.2699 136.361 44.2699C137.107 44.2699 137.639 44.0604 137.959 43.6413C138.286 43.2223 138.449 42.7358 138.449 42.1818Z" fill="black"/>
<path d="M145.387 49.9801V47.6364H158.683V49.9801H153.313V64H150.799V49.9801H145.387Z" fill="black"/>
<path d="M164.864 60.2926L172.748 47.6364H175.645V64H173.131V51.3438L165.29 64H162.35V47.6364H164.864V60.2926Z" fill="black"/>
</svg>
