<svg width="300" height="100" viewBox="0 0 300 100" fill="none" xmlns="http://www.w3.org/2000/svg">
<path d="M0 0H300V100H0V0Z" fill="#D9D9D9"/>
<path d="M40.1989 29H37.5568C37.4006 28.2401 37.1271 27.5724 36.7365 26.9972C36.353 26.4219 35.8842 25.9389 35.3303 25.5483C34.7834 25.1506 34.1761 24.8523 33.5085 24.6534C32.8409 24.4545 32.1449 24.3551 31.4205 24.3551C30.0994 24.3551 28.9027 24.6889 27.8303 25.3565C26.7649 26.0241 25.9162 27.0078 25.2841 28.3075C24.6591 29.6072 24.3466 31.2017 24.3466 33.0909C24.3466 34.9801 24.6591 36.5746 25.2841 37.8743C25.9162 39.174 26.7649 40.1577 27.8303 40.8253C28.9027 41.4929 30.0994 41.8267 31.4205 41.8267C32.1449 41.8267 32.8409 41.7273 33.5085 41.5284C34.1761 41.3295 34.7834 41.0348 35.3303 40.6442C35.8842 40.2464 36.353 39.7599 36.7365 39.1847C37.1271 38.6023 37.4006 37.9347 37.5568 37.1818H40.1989C40 38.2969 39.6378 39.2947 39.1122 40.1754C38.5866 41.0561 37.9332 41.8054 37.152 42.4233C36.3707 43.0341 35.4936 43.4993 34.5206 43.8189C33.5547 44.1385 32.5213 44.2983 31.4205 44.2983C29.5597 44.2983 27.9048 43.8437 26.456 42.9347C25.0071 42.0256 23.8672 40.733 23.0362 39.0568C22.2053 37.3807 21.7898 35.392 21.7898 33.0909C21.7898 30.7898 22.2053 28.8011 23.0362 27.125C23.8672 25.4489 25.0071 24.1562 26.456 23.2472C27.9048 22.3381 29.5597 21.8835 31.4205 21.8835C32.5213 21.8835 33.5547 22.0433 34.5206 22.3629C35.4936 22.6825 36.3707 23.1513 37.152 23.7692C37.9332 24.38 38.5866 25.1257 39.1122 26.0064C39.6378 26.88 40 27.8778 40.1989 29Z" fill="black"/>
<path d="M50.775 44.3409C49.2978 44.3409 48.0016 43.9893 46.8865 43.2862C45.7786 42.5831 44.9121 41.5994 44.2871 40.3352C43.6692 39.071 43.3603 37.5937 43.3603 35.9034C43.3603 34.1989 43.6692 32.7109 44.2871 31.4396C44.9121 30.1683 45.7786 29.1811 46.8865 28.478C48.0016 27.7749 49.2978 27.4233 50.775 27.4233C52.2523 27.4233 53.5449 27.7749 54.6529 28.478C55.7679 29.1811 56.6344 30.1683 57.2523 31.4396C57.8773 32.7109 58.1898 34.1989 58.1898 35.9034C58.1898 37.5937 57.8773 39.071 57.2523 40.3352C56.6344 41.5994 55.7679 42.5831 54.6529 43.2862C53.5449 43.9893 52.2523 44.3409 50.775 44.3409ZM50.775 42.0824C51.8972 42.0824 52.8205 41.7947 53.5449 41.2195C54.2694 40.6442 54.8056 39.8878 55.1536 38.9503C55.5016 38.0128 55.6756 36.9972 55.6756 35.9034C55.6756 34.8097 55.5016 33.7905 55.1536 32.8459C54.8056 31.9013 54.2694 31.1378 53.5449 30.5554C52.8205 29.973 51.8972 29.6818 50.775 29.6818C49.6529 29.6818 48.7296 29.973 48.0051 30.5554C47.2807 31.1378 46.7445 31.9013 46.3965 32.8459C46.0485 33.7905 45.8745 34.8097 45.8745 35.9034C45.8745 36.9972 46.0485 38.0128 46.3965 38.9503C46.7445 39.8878 47.2807 40.6442 48.0051 41.2195C48.7296 41.7947 49.6529 42.0824 50.775 42.0824Z" fill="black"/>
<path d="M61.005 39.8239H63.6896C63.7465 40.5625 64.0803 41.1236 64.691 41.5071C65.3089 41.8906 66.1115 42.0824 67.0987 42.0824C68.1072 42.0824 68.9702 41.8764 69.6875 41.4645C70.4048 41.0455 70.7635 40.3707 70.7635 39.4403C70.7635 38.8935 70.6286 38.4176 70.3587 38.0128C70.0888 37.6009 69.7088 37.2813 69.2188 37.054C68.7287 36.8267 68.1499 36.7131 67.4822 36.7131H64.6697V34.4545H67.4822C68.4837 34.4545 69.2223 34.2273 69.6982 33.7727C70.1811 33.3182 70.4226 32.75 70.4226 32.0682C70.4226 31.3366 70.1634 30.7507 69.6449 30.3104C69.1264 29.8629 68.3913 29.6392 67.4396 29.6392C66.4808 29.6392 65.6818 29.8558 65.0426 30.2891C64.4034 30.7152 64.0661 31.2656 64.0305 31.9403H61.3885C61.4169 31.0597 61.6868 30.282 62.1982 29.6072C62.7095 28.9254 63.4055 28.3928 64.2862 28.0092C65.1669 27.6186 66.1754 27.4233 67.3118 27.4233C68.4624 27.4233 69.4602 27.6257 70.3054 28.0305C71.1577 28.4283 71.8146 28.9716 72.2763 29.6605C72.745 30.3423 72.9794 31.1165 72.9794 31.983C72.9794 32.9062 72.7202 33.652 72.2017 34.2202C71.6832 34.7884 71.0334 35.1932 70.2521 35.4347V35.6051C70.87 35.6477 71.4062 35.8466 71.8608 36.2017C72.3224 36.5497 72.6811 37.0078 72.9368 37.576C73.1925 38.1371 73.3203 38.7585 73.3203 39.4403C73.3203 40.4347 73.054 41.3011 72.5213 42.0398C71.9886 42.7713 71.2571 43.3395 70.3267 43.7443C69.3963 44.142 68.3345 44.3409 67.1413 44.3409C65.9837 44.3409 64.9467 44.1527 64.0305 43.7763C63.1143 43.3928 62.3864 42.8636 61.8466 42.1889C61.3139 41.5071 61.0334 40.7188 61.005 39.8239Z" fill="black"/>
<path d="M75.1048 48.6875V41.6562H76.4684C76.8022 41.3082 77.0898 40.9318 77.3313 40.527C77.5728 40.1222 77.7823 39.6428 77.9599 39.0888C78.1445 38.5277 78.3008 37.8459 78.4286 37.0433C78.5565 36.2337 78.6701 35.2571 78.7695 34.1136L79.3235 27.6364H89.7212V41.6562H92.2354V48.6875H89.7212V44H77.619V48.6875H75.1048ZM79.3235 41.6562H87.207V29.9801H81.6673L81.2411 34.1136C81.0636 35.8253 80.8434 37.3203 80.5806 38.5987C80.3178 39.8771 79.8988 40.8963 79.3235 41.6562Z" fill="black"/>
<path d="M100.388 44.3835C99.351 44.3835 98.41 44.1882 97.5648 43.7976C96.7196 43.3999 96.0485 42.8281 95.5513 42.0824C95.0542 41.3295 94.8056 40.4205 94.8056 39.3551C94.8056 38.4176 94.9902 37.6577 95.3596 37.0753C95.7289 36.4858 96.2225 36.0241 96.8404 35.6903C97.4583 35.3565 98.1401 35.108 98.8858 34.9446C99.6387 34.7741 100.395 34.6392 101.155 34.5398C102.149 34.4119 102.955 34.316 103.573 34.2521C104.198 34.1811 104.653 34.0639 104.937 33.9006C105.228 33.7372 105.374 33.4531 105.374 33.0483V32.9631C105.374 31.9119 105.086 31.0952 104.511 30.5128C103.943 29.9304 103.08 29.6392 101.922 29.6392C100.722 29.6392 99.7807 29.902 99.0989 30.4276C98.4171 30.9531 97.9377 31.5142 97.6607 32.1108L95.2743 31.2585C95.7005 30.2642 96.2686 29.4901 96.9789 28.9361C97.6962 28.375 98.4775 27.9844 99.3226 27.7642C100.175 27.5369 101.013 27.4233 101.837 27.4233C102.362 27.4233 102.966 27.4872 103.648 27.6151C104.337 27.7358 105.001 27.9879 105.64 28.3714C106.286 28.755 106.823 29.3338 107.249 30.108C107.675 30.8821 107.888 31.919 107.888 33.2188V44H105.374V41.7841H105.246C105.075 42.1392 104.791 42.5192 104.394 42.924C103.996 43.3288 103.467 43.6733 102.806 43.9574C102.146 44.2415 101.34 44.3835 100.388 44.3835ZM100.771 42.125C101.766 42.125 102.604 41.9297 103.286 41.5391C103.975 41.1484 104.493 40.6442 104.841 40.0263C105.196 39.4084 105.374 38.7585 105.374 38.0767V35.7756C105.267 35.9034 105.033 36.0206 104.671 36.1271C104.316 36.2266 103.904 36.3153 103.435 36.3935C102.973 36.4645 102.522 36.5284 102.082 36.5852C101.649 36.6349 101.297 36.6776 101.027 36.7131C100.374 36.7983 99.763 36.9368 99.1948 37.1286C98.6337 37.3132 98.1792 37.5937 97.8311 37.9702C97.4902 38.3395 97.3198 38.8438 97.3198 39.483C97.3198 40.3565 97.6429 41.017 98.2892 41.4645C98.9426 41.9048 99.7701 42.125 100.771 42.125Z" fill="black"/>
<path d="M110.25 29.9801V27.6364H123.546V29.9801H118.176V44H115.662V29.9801H110.25Z" fill="black"/>
<path d="M129.387 33.5597H134.074C135.992 33.5597 137.458 34.0462 138.474 35.0192C139.49 35.9922 139.997 37.2244 139.997 38.7159C139.997 39.696 139.77 40.5874 139.316 41.3899C138.861 42.1854 138.193 42.821 137.313 43.2969C136.432 43.7656 135.352 44 134.074 44H127.213V27.6364H129.727V41.6562H134.074C135.068 41.6562 135.885 41.3935 136.524 40.8679C137.164 40.3423 137.483 39.6676 137.483 38.8438C137.483 37.9773 137.164 37.2706 136.524 36.7237C135.885 36.1768 135.068 35.9034 134.074 35.9034H129.387V33.5597Z" fill="black"/>
<path d="M153.881 50.1364C153.455 50.1364 153.075 50.1009 152.741 50.0298C152.408 49.9659 152.177 49.902 152.049 49.8381L152.688 47.6222C153.299 47.7784 153.839 47.8352 154.308 47.7926C154.776 47.75 155.192 47.5405 155.554 47.1641C155.923 46.7947 156.261 46.1946 156.566 45.3636L157.035 44.0852L150.984 27.6364H153.711L158.228 40.6761H158.398L162.915 27.6364H165.643L158.697 46.3864C158.384 47.2315 157.997 47.9311 157.536 48.4851C157.074 49.0462 156.538 49.4616 155.927 49.7315C155.323 50.0014 154.641 50.1364 153.881 50.1364Z" fill="black"/>
<path d="M181.077 27.6364V44H178.563V27.6364H181.077ZM180.097 35.4347V37.7784C179.529 37.9915 178.964 38.1797 178.403 38.343C177.842 38.4993 177.252 38.6236 176.634 38.7159C176.017 38.8011 175.338 38.8438 174.6 38.8438C172.746 38.8438 171.258 38.343 170.136 37.3416C169.021 36.3402 168.463 34.8381 168.463 32.8352V27.5938H170.977V32.8352C170.977 33.6733 171.137 34.3622 171.457 34.902C171.776 35.4418 172.21 35.843 172.757 36.1058C173.303 36.3686 173.918 36.5 174.6 36.5C175.665 36.5 176.627 36.4041 177.487 36.2124C178.353 36.0135 179.223 35.7543 180.097 35.4347Z" fill="black"/>
<path d="M192.551 44.3409C190.974 44.3409 189.614 43.9929 188.47 43.2969C187.334 42.5938 186.457 41.6136 185.839 40.3565C185.228 39.0923 184.923 37.6222 184.923 35.946C184.923 34.2699 185.228 32.7926 185.839 31.5142C186.457 30.2287 187.316 29.2273 188.417 28.5099C189.525 27.7855 190.818 27.4233 192.295 27.4233C193.147 27.4233 193.989 27.5653 194.82 27.8494C195.651 28.1335 196.407 28.5952 197.089 29.2344C197.771 29.8665 198.314 30.7045 198.719 31.7486C199.124 32.7926 199.326 34.0781 199.326 35.6051V36.6705H186.713V34.4972H196.769C196.769 33.5739 196.585 32.75 196.215 32.0256C195.853 31.3011 195.335 30.7294 194.66 30.3104C193.992 29.8913 193.204 29.6818 192.295 29.6818C191.294 29.6818 190.427 29.9304 189.695 30.4276C188.971 30.9176 188.414 31.5568 188.023 32.3452C187.632 33.1335 187.437 33.9787 187.437 34.8807V36.3295C187.437 37.5653 187.65 38.6129 188.076 39.4723C188.509 40.3246 189.11 40.9744 189.877 41.4219C190.644 41.8622 191.535 42.0824 192.551 42.0824C193.211 42.0824 193.808 41.9901 194.34 41.8054C194.88 41.6136 195.345 41.3295 195.736 40.9531C196.127 40.5696 196.428 40.0937 196.642 39.5256L199.07 40.2074C198.815 41.0312 198.385 41.7557 197.781 42.3807C197.178 42.9986 196.432 43.4815 195.544 43.8295C194.656 44.1705 193.659 44.3409 192.551 44.3409Z" fill="black"/>
<path d="M201.627 29.9801V27.6364H214.923V29.9801H209.553V44H207.039V29.9801H201.627Z" fill="black"/>
<path d="M229.542 34.6676V37.0114H220.508V34.6676H229.542ZM221.104 27.6364V44H218.59V27.6364H221.104ZM231.46 27.6364V44H228.945V27.6364H231.46Z" fill="black"/>
<path d="M237.085 50.1364C236.658 50.1364 236.278 50.1009 235.945 50.0298C235.611 49.9659 235.38 49.902 235.252 49.8381L235.891 47.6222C236.502 47.7784 237.042 47.8352 237.511 47.7926C237.979 47.75 238.395 47.5405 238.757 47.1641C239.126 46.7947 239.464 46.1946 239.769 45.3636L240.238 44.0852L234.187 27.6364H236.914L241.431 40.6761H241.602L246.119 27.6364H248.846L241.9 46.3864C241.587 47.2315 241.2 47.9311 240.739 48.4851C240.277 49.0462 239.741 49.4616 239.13 49.7315C238.526 50.0014 237.844 50.1364 237.085 50.1364Z" fill="black"/>
<path d="M260.005 34.7955V37.1392H251.355V34.7955H260.005ZM253.485 27.6364V44H250.971V27.6364H253.485ZM265.034 44.3409C263.556 44.3409 262.26 43.9893 261.145 43.2862C260.037 42.5831 259.171 41.5994 258.546 40.3352C257.928 39.071 257.619 37.5937 257.619 35.9034C257.619 34.1989 257.928 32.7109 258.546 31.4396C259.171 30.1683 260.037 29.1811 261.145 28.478C262.26 27.7749 263.556 27.4233 265.034 27.4233C266.511 27.4233 267.804 27.7749 268.912 28.478C270.027 29.1811 270.893 30.1683 271.511 31.4396C272.136 32.7109 272.449 34.1989 272.449 35.9034C272.449 37.5937 272.136 39.071 271.511 40.3352C270.893 41.5994 270.027 42.5831 268.912 43.2862C267.804 43.9893 266.511 44.3409 265.034 44.3409ZM265.034 42.0824C266.156 42.0824 267.079 41.7947 267.804 41.2195C268.528 40.6442 269.064 39.8878 269.412 38.9503C269.76 38.0128 269.934 36.9972 269.934 35.9034C269.934 34.8097 269.76 33.7905 269.412 32.8459C269.064 31.9013 268.528 31.1378 267.804 30.5554C267.079 29.973 266.156 29.6818 265.034 29.6818C263.912 29.6818 262.988 29.973 262.264 30.5554C261.539 31.1378 261.003 31.9013 260.655 32.8459C260.307 33.7905 260.133 34.8097 260.133 35.9034C260.133 36.9972 260.307 38.0128 260.655 38.9503C261.003 39.8878 261.539 40.6442 262.264 41.2195C262.988 41.7947 263.912 42.0824 265.034 42.0824Z" fill="black"/>
<path d="M21.2784 75.8239H23.9631C24.0199 76.5625 24.3537 77.1236 24.9645 77.5071C25.5824 77.8906 26.3849 78.0824 27.3722 78.0824C28.3807 78.0824 29.2436 77.8764 29.9609 77.4645C30.6783 77.0455 31.0369 76.3707 31.0369 75.4403C31.0369 74.8935 30.902 74.4176 30.6321 74.0128C30.3622 73.6009 29.9822 73.2813 29.4922 73.054C29.0021 72.8267 28.4233 72.7131 27.7557 72.7131H24.9432V70.4545H27.7557C28.7571 70.4545 29.4957 70.2273 29.9716 69.7727C30.4545 69.3182 30.696 68.75 30.696 68.0682C30.696 67.3366 30.4368 66.7507 29.9183 66.3104C29.3999 65.8629 28.6648 65.6392 27.7131 65.6392C26.7543 65.6392 25.9553 65.8558 25.3161 66.2891C24.6768 66.7152 24.3395 67.2656 24.304 67.9403H21.6619C21.6903 67.0597 21.9602 66.282 22.4716 65.6072C22.983 64.9254 23.679 64.3928 24.5597 64.0092C25.4403 63.6186 26.4489 63.4233 27.5852 63.4233C28.7358 63.4233 29.7337 63.6257 30.5788 64.0305C31.4311 64.4283 32.0881 64.9716 32.5497 65.6605C33.0185 66.3423 33.2528 67.1165 33.2528 67.983C33.2528 68.9063 32.9936 69.652 32.4751 70.2202C31.9567 70.7884 31.3068 71.1932 30.5256 71.4347V71.6051C31.1435 71.6477 31.6797 71.8466 32.1342 72.2017C32.5959 72.5497 32.9545 73.0078 33.2102 73.576C33.4659 74.1371 33.5938 74.7585 33.5938 75.4403C33.5938 76.4347 33.3274 77.3011 32.7947 78.0398C32.2621 78.7713 31.5305 79.3395 30.6001 79.7443C29.6697 80.142 28.608 80.3409 27.4148 80.3409C26.2571 80.3409 25.2202 80.1527 24.304 79.7763C23.3878 79.3928 22.6598 78.8636 22.12 78.1889C21.5874 77.5071 21.3068 76.7187 21.2784 75.8239Z" fill="black"/>
<path d="M41.9407 80.3835C40.9038 80.3835 39.9627 80.1882 39.1175 79.7976C38.2724 79.3999 37.6012 78.8281 37.104 78.0824C36.6069 77.3295 36.3583 76.4205 36.3583 75.3551C36.3583 74.4176 36.543 73.6577 36.9123 73.0753C37.2816 72.4858 37.7752 72.0241 38.3931 71.6903C39.011 71.3565 39.6928 71.108 40.4386 70.9446C41.1914 70.7741 41.9478 70.6392 42.7077 70.5398C43.7021 70.4119 44.5082 70.316 45.1261 70.2521C45.7511 70.1811 46.2056 70.0639 46.4897 69.9006C46.7809 69.7372 46.9265 69.4531 46.9265 69.0483V68.9631C46.9265 67.9119 46.6388 67.0952 46.0636 66.5128C45.4954 65.9304 44.6325 65.6392 43.4748 65.6392C42.2745 65.6392 41.3335 65.902 40.6516 66.4276C39.9698 66.9531 39.4904 67.5142 39.2134 68.1108L36.8271 67.2585C37.2532 66.2642 37.8214 65.4901 38.5316 64.9361C39.2489 64.375 40.0302 63.9844 40.8754 63.7642C41.7276 63.5369 42.5657 63.4233 43.3896 63.4233C43.9151 63.4233 44.5188 63.4872 45.2006 63.6151C45.8896 63.7358 46.5536 63.9879 47.1928 64.3714C47.8391 64.755 48.3754 65.3338 48.8015 66.108C49.2276 66.8821 49.4407 67.919 49.4407 69.2188V80H46.9265V77.7841H46.7987C46.6282 78.1392 46.3441 78.5192 45.9464 78.924C45.5486 79.3288 45.0195 79.6733 44.359 79.9574C43.6985 80.2415 42.8924 80.3835 41.9407 80.3835ZM42.3242 78.125C43.3185 78.125 44.1566 77.9297 44.8384 77.5391C45.5273 77.1484 46.0458 76.6442 46.3938 76.0263C46.7489 75.4084 46.9265 74.7585 46.9265 74.0767V71.7756C46.82 71.9034 46.5856 72.0206 46.2234 72.1271C45.8683 72.2266 45.4563 72.3153 44.9876 72.3935C44.5259 72.4645 44.0749 72.5284 43.6346 72.5852C43.2014 72.6349 42.8498 72.6776 42.5799 72.7131C41.9265 72.7983 41.3157 72.9368 40.7475 73.1285C40.1864 73.3132 39.7319 73.5937 39.3839 73.9702C39.043 74.3395 38.8725 74.8438 38.8725 75.483C38.8725 76.3565 39.1957 77.017 39.842 77.4645C40.4954 77.9048 41.3228 78.125 42.3242 78.125Z" fill="black"/>
<path d="M54.0297 80V63.6364H66.899V80H64.3848V65.9801H56.5439V80H54.0297Z" fill="black"/>
<path d="M74.0048 76.2926L81.8883 63.6364H84.786V80H82.2718V67.3438L74.4309 80H71.4906V63.6364H74.0048V76.2926Z" fill="black"/>
<path d="M96.0387 80.3409C94.5046 80.3409 93.1836 79.9787 92.0756 79.2543C90.9677 78.5298 90.1154 77.532 89.5188 76.2607C88.9222 74.9893 88.6239 73.5369 88.6239 71.9034C88.6239 70.2415 88.9293 68.7749 89.5401 67.5035C90.158 66.2251 91.0174 65.2273 92.1183 64.5099C93.2262 63.7855 94.5188 63.4233 95.9961 63.4233C97.1467 63.4233 98.1836 63.6364 99.1069 64.0625C100.03 64.4886 100.787 65.0852 101.376 65.8523C101.966 66.6193 102.331 67.5142 102.473 68.5369H99.9592C99.7674 67.7912 99.3413 67.1307 98.6808 66.5554C98.0273 65.973 97.1467 65.6818 96.0387 65.6818C95.0586 65.6818 94.1992 65.9375 93.4606 66.4489C92.7291 66.9531 92.1573 67.6669 91.7454 68.5902C91.3406 69.5064 91.1381 70.5824 91.1381 71.8182C91.1381 73.0824 91.337 74.1832 91.7347 75.1207C92.1396 76.0582 92.7077 76.7862 93.4393 77.3047C94.1779 77.8232 95.0444 78.0824 96.0387 78.0824C96.6921 78.0824 97.2852 77.9688 97.8178 77.7415C98.3505 77.5142 98.8015 77.1875 99.1708 76.7614C99.5401 76.3352 99.8029 75.8239 99.9592 75.2273H102.473C102.331 76.1932 101.98 77.0632 101.419 77.8374C100.865 78.6044 100.13 79.2152 99.2134 79.6697C98.3043 80.1172 97.2461 80.3409 96.0387 80.3409Z" fill="black"/>
<path d="M108.322 69.5597H113.01C114.927 69.5597 116.394 70.0462 117.409 71.0192C118.425 71.9922 118.933 73.2244 118.933 74.7159C118.933 75.696 118.706 76.5874 118.251 77.3899C117.797 78.1854 117.129 78.821 116.248 79.2969C115.368 79.7656 114.288 80 113.01 80H106.149V63.6364H108.663V77.6562H113.01C114.004 77.6562 114.821 77.3935 115.46 76.8679C116.099 76.3423 116.419 75.6676 116.419 74.8438C116.419 73.9773 116.099 73.2706 115.46 72.7237C114.821 72.1768 114.004 71.9034 113.01 71.9034H108.322V69.5597Z" fill="black"/>
</svg>
