<svg width="357" height="31" viewBox="0 0 357 31" fill="none" xmlns="http://www.w3.org/2000/svg">
<path d="M7.8956 24.8864V6.13636H11.0774V24.8864H7.8956ZM0.111506 17.1023V13.9205H18.8615V17.1023H0.111506ZM25.6939 30L38.7053 4.26136V4.03409H23.7053V0.90909H42.3416V4.20455L29.3871 30H25.6939ZM60.1932 13.892V17.017H47.4659V13.892H60.1932ZM75.2962 0.511363C76.4893 0.520833 77.6825 0.748105 78.8757 1.19318C80.0689 1.63826 81.1579 2.37689 82.1428 3.40909C83.1276 4.43182 83.9183 5.8286 84.5149 7.59943C85.1115 9.37026 85.4098 11.5909 85.4098 14.2614C85.4098 16.8466 85.1636 19.143 84.6712 21.1506C84.1882 23.1487 83.4875 24.8343 82.5689 26.2074C81.6598 27.5805 80.5518 28.6222 79.245 29.3324C77.9477 30.0426 76.4799 30.3977 74.8416 30.3977C73.2128 30.3977 71.7592 30.0758 70.4808 29.4318C69.2119 28.7784 68.1702 27.8741 67.3558 26.7188C66.5509 25.554 66.0348 24.2045 65.8075 22.6705H69.2734C69.5859 24.0057 70.2062 25.1089 71.1342 25.9801C72.0717 26.8419 73.3075 27.2727 74.8416 27.2727C77.0859 27.2727 78.8568 26.2926 80.1541 24.3324C81.4609 22.3722 82.1143 19.6023 82.1143 16.0227H81.8871C81.3568 16.8182 80.727 17.5047 79.9979 18.0824C79.2687 18.66 78.459 19.1051 77.5689 19.4176C76.6787 19.7301 75.7318 19.8864 74.728 19.8864C73.0613 19.8864 71.532 19.4744 70.1399 18.6506C68.7573 17.8172 67.6494 16.6761 66.8161 15.2273C65.9922 13.7689 65.5803 12.1023 65.5803 10.2273C65.5803 8.44697 65.978 6.81818 66.7734 5.34091C67.5784 3.85417 68.7053 2.67045 70.1541 1.78977C71.6125 0.909091 73.3265 0.482954 75.2962 0.511363ZM75.2962 3.63636C74.103 3.63636 73.0282 3.93466 72.0717 4.53125C71.1248 5.11837 70.3719 5.91382 69.8132 6.91761C69.264 7.91193 68.9893 9.01515 68.9893 10.2273C68.9893 11.4394 69.2545 12.5426 69.7848 13.5369C70.3246 14.5218 71.0585 15.3078 71.9865 15.8949C72.924 16.4725 73.9893 16.7614 75.1825 16.7614C76.0822 16.7614 76.9202 16.5862 77.6967 16.2358C78.4732 15.8759 79.1503 15.3883 79.728 14.7727C80.3151 14.1477 80.7744 13.4422 81.1058 12.6562C81.4373 11.8608 81.603 11.0322 81.603 10.1705C81.603 9.03409 81.3284 7.96875 80.7791 6.97443C80.2393 5.98011 79.4912 5.17519 78.5348 4.55966C77.5878 3.94413 76.5083 3.63636 75.2962 3.63636ZM100.484 30.3977C98.3442 30.3977 96.5213 29.8153 95.0156 28.6506C93.5099 27.4763 92.3594 25.7765 91.5639 23.5511C90.7685 21.3163 90.3707 18.6174 90.3707 15.4545C90.3707 12.3106 90.7685 9.62595 91.5639 7.40057C92.3688 5.16572 93.5241 3.46117 95.0298 2.28693C96.545 1.10322 98.3632 0.511363 100.484 0.511363C102.606 0.511363 104.419 1.10322 105.925 2.28693C107.44 3.46117 108.595 5.16572 109.391 7.40057C110.196 9.62595 110.598 12.3106 110.598 15.4545C110.598 18.6174 110.2 21.3163 109.405 23.5511C108.609 25.7765 107.459 27.4763 105.953 28.6506C104.447 29.8153 102.625 30.3977 100.484 30.3977ZM100.484 27.2727C102.606 27.2727 104.253 26.25 105.428 24.2045C106.602 22.1591 107.189 19.2424 107.189 15.4545C107.189 12.9356 106.919 10.7907 106.379 9.01989C105.849 7.24905 105.082 5.89962 104.078 4.97159C103.084 4.04356 101.886 3.57955 100.484 3.57955C98.3821 3.57955 96.7391 4.61648 95.5554 6.69034C94.3717 8.75473 93.7798 11.6761 93.7798 15.4545C93.7798 17.9735 94.045 20.1136 94.5753 21.875C95.1056 23.6364 95.8679 24.9763 96.8622 25.8949C97.866 26.8134 99.0734 27.2727 100.484 27.2727ZM125.484 30.3977C123.344 30.3977 121.521 29.8153 120.016 28.6506C118.51 27.4763 117.359 25.7765 116.564 23.5511C115.768 21.3163 115.371 18.6174 115.371 15.4545C115.371 12.3106 115.768 9.62595 116.564 7.40057C117.369 5.16572 118.524 3.46117 120.03 2.28693C121.545 1.10322 123.363 0.511363 125.484 0.511363C127.606 0.511363 129.419 1.10322 130.925 2.28693C132.44 3.46117 133.595 5.16572 134.391 7.40057C135.196 9.62595 135.598 12.3106 135.598 15.4545C135.598 18.6174 135.2 21.3163 134.405 23.5511C133.609 25.7765 132.459 27.4763 130.953 28.6506C129.447 29.8153 127.625 30.3977 125.484 30.3977ZM125.484 27.2727C127.606 27.2727 129.253 26.25 130.428 24.2045C131.602 22.1591 132.189 19.2424 132.189 15.4545C132.189 12.9356 131.919 10.7907 131.379 9.01989C130.849 7.24905 130.082 5.89962 129.078 4.97159C128.084 4.04356 126.886 3.57955 125.484 3.57955C123.382 3.57955 121.739 4.61648 120.555 6.69034C119.372 8.75473 118.78 11.6761 118.78 15.4545C118.78 17.9735 119.045 20.1136 119.575 21.875C120.106 23.6364 120.868 24.9763 121.862 25.8949C122.866 26.8134 124.073 27.2727 125.484 27.2727ZM153.553 13.892V17.017H140.825V13.892H153.553ZM168.656 0.511363C169.849 0.520833 171.042 0.748105 172.235 1.19318C173.428 1.63826 174.517 2.37689 175.502 3.40909C176.487 4.43182 177.278 5.8286 177.874 7.59943C178.471 9.37026 178.769 11.5909 178.769 14.2614C178.769 16.8466 178.523 19.143 178.031 21.1506C177.548 23.1487 176.847 24.8343 175.928 26.2074C175.019 27.5805 173.911 28.6222 172.604 29.3324C171.307 30.0426 169.839 30.3977 168.201 30.3977C166.572 30.3977 165.119 30.0758 163.84 29.4318C162.571 28.7784 161.53 27.8741 160.715 26.7188C159.91 25.554 159.394 24.2045 159.167 22.6705H162.633C162.945 24.0057 163.566 25.1089 164.494 25.9801C165.431 26.8419 166.667 27.2727 168.201 27.2727C170.445 27.2727 172.216 26.2926 173.513 24.3324C174.82 22.3722 175.474 19.6023 175.474 16.0227H175.246C174.716 16.8182 174.086 17.5047 173.357 18.0824C172.628 18.66 171.818 19.1051 170.928 19.4176C170.038 19.7301 169.091 19.8864 168.087 19.8864C166.421 19.8864 164.891 19.4744 163.499 18.6506C162.117 17.8172 161.009 16.6761 160.175 15.2273C159.352 13.7689 158.94 12.1023 158.94 10.2273C158.94 8.44697 159.337 6.81818 160.133 5.34091C160.938 3.85417 162.065 2.67045 163.513 1.78977C164.972 0.909091 166.686 0.482954 168.656 0.511363ZM168.656 3.63636C167.462 3.63636 166.388 3.93466 165.431 4.53125C164.484 5.11837 163.731 5.91382 163.173 6.91761C162.623 7.91193 162.349 9.01515 162.349 10.2273C162.349 11.4394 162.614 12.5426 163.144 13.5369C163.684 14.5218 164.418 15.3078 165.346 15.8949C166.283 16.4725 167.349 16.7614 168.542 16.7614C169.442 16.7614 170.28 16.5862 171.056 16.2358C171.833 15.8759 172.51 15.3883 173.087 14.7727C173.674 14.1477 174.134 13.4422 174.465 12.6562C174.797 11.8608 174.962 11.0322 174.962 10.1705C174.962 9.03409 174.688 7.96875 174.138 6.97443C173.599 5.98011 172.851 5.17519 171.894 4.55966C170.947 3.94413 169.868 3.63636 168.656 3.63636ZM193.844 30.3977C191.704 30.3977 189.881 29.8153 188.375 28.6506C186.869 27.4763 185.719 25.7765 184.923 23.5511C184.128 21.3163 183.73 18.6174 183.73 15.4545C183.73 12.3106 184.128 9.62595 184.923 7.40057C185.728 5.16572 186.884 3.46117 188.389 2.28693C189.904 1.10322 191.723 0.511363 193.844 0.511363C195.965 0.511363 197.778 1.10322 199.284 2.28693C200.799 3.46117 201.955 5.16572 202.75 7.40057C203.555 9.62595 203.957 12.3106 203.957 15.4545C203.957 18.6174 203.56 21.3163 202.764 23.5511C201.969 25.7765 200.818 27.4763 199.312 28.6506C197.807 29.8153 195.984 30.3977 193.844 30.3977ZM193.844 27.2727C195.965 27.2727 197.613 26.25 198.787 24.2045C199.961 22.1591 200.548 19.2424 200.548 15.4545C200.548 12.9356 200.278 10.7907 199.739 9.01989C199.208 7.24905 198.441 5.89962 197.438 4.97159C196.443 4.04356 195.245 3.57955 193.844 3.57955C191.741 3.57955 190.098 4.61648 188.915 6.69034C187.731 8.75473 187.139 11.6761 187.139 15.4545C187.139 17.9735 187.404 20.1136 187.935 21.875C188.465 23.6364 189.227 24.9763 190.222 25.8949C191.225 26.8134 192.433 27.2727 193.844 27.2727ZM218.844 30.3977C216.704 30.3977 214.881 29.8153 213.375 28.6506C211.869 27.4763 210.719 25.7765 209.923 23.5511C209.128 21.3163 208.73 18.6174 208.73 15.4545C208.73 12.3106 209.128 9.62595 209.923 7.40057C210.728 5.16572 211.884 3.46117 213.389 2.28693C214.904 1.10322 216.723 0.511363 218.844 0.511363C220.965 0.511363 222.778 1.10322 224.284 2.28693C225.799 3.46117 226.955 5.16572 227.75 7.40057C228.555 9.62595 228.957 12.3106 228.957 15.4545C228.957 18.6174 228.56 21.3163 227.764 23.5511C226.969 25.7765 225.818 27.4763 224.312 28.6506C222.807 29.8153 220.984 30.3977 218.844 30.3977ZM218.844 27.2727C220.965 27.2727 222.613 26.25 223.787 24.2045C224.961 22.1591 225.548 19.2424 225.548 15.4545C225.548 12.9356 225.278 10.7907 224.739 9.01989C224.208 7.24905 223.441 5.89962 222.438 4.97159C221.443 4.04356 220.245 3.57955 218.844 3.57955C216.741 3.57955 215.098 4.61648 213.915 6.69034C212.731 8.75473 212.139 11.6761 212.139 15.4545C212.139 17.9735 212.404 20.1136 212.935 21.875C213.465 23.6364 214.227 24.9763 215.222 25.8949C216.225 26.8134 217.433 27.2727 218.844 27.2727ZM246.912 13.892V17.017H234.185V13.892H246.912ZM262.015 0.511363C263.208 0.520833 264.401 0.748105 265.594 1.19318C266.788 1.63826 267.877 2.37689 268.862 3.40909C269.846 4.43182 270.637 5.8286 271.234 7.59943C271.83 9.37026 272.129 11.5909 272.129 14.2614C272.129 16.8466 271.882 19.143 271.39 21.1506C270.907 23.1487 270.206 24.8343 269.288 26.2074C268.379 27.5805 267.271 28.6222 265.964 29.3324C264.666 30.0426 263.199 30.3977 261.56 30.3977C259.932 30.3977 258.478 30.0758 257.2 29.4318C255.931 28.7784 254.889 27.8741 254.075 26.7188C253.27 25.554 252.754 24.2045 252.526 22.6705H255.992C256.305 24.0057 256.925 25.1089 257.853 25.9801C258.79 26.8419 260.026 27.2727 261.56 27.2727C263.805 27.2727 265.576 26.2926 266.873 24.3324C268.18 22.3722 268.833 19.6023 268.833 16.0227H268.606C268.076 16.8182 267.446 17.5047 266.717 18.0824C265.987 18.66 265.178 19.1051 264.288 19.4176C263.397 19.7301 262.451 19.8864 261.447 19.8864C259.78 19.8864 258.251 19.4744 256.859 18.6506C255.476 17.8172 254.368 16.6761 253.535 15.2273C252.711 13.7689 252.299 12.1023 252.299 10.2273C252.299 8.44697 252.697 6.81818 253.492 5.34091C254.297 3.85417 255.424 2.67045 256.873 1.78977C258.331 0.909091 260.045 0.482954 262.015 0.511363ZM262.015 3.63636C260.822 3.63636 259.747 3.93466 258.79 4.53125C257.844 5.11837 257.091 5.91382 256.532 6.91761C255.983 7.91193 255.708 9.01515 255.708 10.2273C255.708 11.4394 255.973 12.5426 256.504 13.5369C257.043 14.5218 257.777 15.3078 258.705 15.8949C259.643 16.4725 260.708 16.7614 261.901 16.7614C262.801 16.7614 263.639 16.5862 264.415 16.2358C265.192 15.8759 265.869 15.3883 266.447 14.7727C267.034 14.1477 267.493 13.4422 267.825 12.6562C268.156 11.8608 268.322 11.0322 268.322 10.1705C268.322 9.03409 268.047 7.96875 267.498 6.97443C266.958 5.98011 266.21 5.17519 265.254 4.55966C264.307 3.94413 263.227 3.63636 262.015 3.63636ZM287.203 30.3977C285.063 30.3977 283.24 29.8153 281.734 28.6506C280.229 27.4763 279.078 25.7765 278.283 23.5511C277.487 21.3163 277.089 18.6174 277.089 15.4545C277.089 12.3106 277.487 9.62595 278.283 7.40057C279.088 5.16572 280.243 3.46117 281.749 2.28693C283.264 1.10322 285.082 0.511363 287.203 0.511363C289.324 0.511363 291.138 1.10322 292.643 2.28693C294.159 3.46117 295.314 5.16572 296.109 7.40057C296.914 9.62595 297.317 12.3106 297.317 15.4545C297.317 18.6174 296.919 21.3163 296.124 23.5511C295.328 25.7765 294.178 27.4763 292.672 28.6506C291.166 29.8153 289.343 30.3977 287.203 30.3977ZM287.203 27.2727C289.324 27.2727 290.972 26.25 292.146 24.2045C293.321 22.1591 293.908 19.2424 293.908 15.4545C293.908 12.9356 293.638 10.7907 293.098 9.01989C292.568 7.24905 291.801 5.89962 290.797 4.97159C289.803 4.04356 288.605 3.57955 287.203 3.57955C285.101 3.57955 283.458 4.61648 282.274 6.69034C281.09 8.75473 280.499 11.6761 280.499 15.4545C280.499 17.9735 280.764 20.1136 281.294 21.875C281.824 23.6364 282.587 24.9763 283.581 25.8949C284.585 26.8134 285.792 27.2727 287.203 27.2727ZM315.271 13.892V17.017H302.544V13.892H315.271ZM330.602 30.3977C328.461 30.3977 326.638 29.8153 325.133 28.6506C323.627 27.4763 322.477 25.7765 321.681 23.5511C320.886 21.3163 320.488 18.6174 320.488 15.4545C320.488 12.3106 320.886 9.62595 321.681 7.40057C322.486 5.16572 323.641 3.46117 325.147 2.28693C326.662 1.10322 328.48 0.511363 330.602 0.511363C332.723 0.511363 334.536 1.10322 336.042 2.28693C337.557 3.46117 338.712 5.16572 339.508 7.40057C340.313 9.62595 340.715 12.3106 340.715 15.4545C340.715 18.6174 340.317 21.3163 339.522 23.5511C338.727 25.7765 337.576 27.4763 336.07 28.6506C334.565 29.8153 332.742 30.3977 330.602 30.3977ZM330.602 27.2727C332.723 27.2727 334.371 26.25 335.545 24.2045C336.719 22.1591 337.306 19.2424 337.306 15.4545C337.306 12.9356 337.036 10.7907 336.496 9.01989C335.966 7.24905 335.199 5.89962 334.195 4.97159C333.201 4.04356 332.003 3.57955 330.602 3.57955C328.499 3.57955 326.856 4.61648 325.673 6.69034C324.489 8.75473 323.897 11.6761 323.897 15.4545C323.897 17.9735 324.162 20.1136 324.692 21.875C325.223 23.6364 325.985 24.9763 326.979 25.8949C327.983 26.8134 329.191 27.2727 330.602 27.2727ZM356.34 0.90909V30H352.817V4.60227H352.647L345.545 9.31818V5.73864L352.817 0.90909H356.34Z" fill="#4E36E1"/>
</svg>
