<svg width="229" height="85" viewBox="0 0 229 85" fill="none" xmlns="http://www.w3.org/2000/svg">
<path d="M0 0H229V85H0V0Z" fill="#D9D9D9"/>
<path d="M61.6463 54V30.7273H64.4645V41.0909H76.8736V30.7273H79.6918V54H76.8736V43.5909H64.4645V54H61.6463Z" fill="black"/>
<path d="M86.2884 54H83.3338L91.8793 30.7273H94.7884L103.334 54H100.379L93.4247 34.4091H93.2429L86.2884 54ZM87.3793 44.9091H99.2884V47.4091H87.3793V44.9091Z" fill="black"/>
<path d="M114.413 54.3182C112.913 54.3182 111.576 54.0606 110.402 53.5455C109.235 53.0303 108.307 52.3144 107.618 51.3977C106.936 50.4735 106.565 49.4015 106.504 48.1818H109.368C109.429 48.9318 109.686 49.5795 110.141 50.125C110.595 50.6629 111.19 51.0795 111.925 51.375C112.66 51.6705 113.474 51.8182 114.368 51.8182C115.368 51.8182 116.254 51.6439 117.027 51.2955C117.8 50.947 118.406 50.4621 118.845 49.8409C119.285 49.2197 119.504 48.5 119.504 47.6818C119.504 46.8258 119.292 46.072 118.868 45.4205C118.444 44.7614 117.822 44.2462 117.004 43.875C116.186 43.5038 115.186 43.3182 114.004 43.3182H112.141V40.8182H114.004C114.929 40.8182 115.739 40.6515 116.436 40.3182C117.141 39.9848 117.69 39.5151 118.084 38.9091C118.485 38.303 118.686 37.5909 118.686 36.7727C118.686 35.9848 118.512 35.2992 118.163 34.7159C117.815 34.1326 117.322 33.678 116.686 33.3523C116.057 33.0265 115.315 32.8636 114.459 32.8636C113.656 32.8636 112.898 33.0114 112.186 33.3068C111.482 33.5947 110.906 34.0152 110.459 34.5682C110.012 35.1136 109.769 35.7727 109.732 36.5455H107.004C107.05 35.3258 107.417 34.2576 108.107 33.3409C108.796 32.4167 109.697 31.697 110.811 31.1818C111.932 30.6667 113.163 30.4091 114.504 30.4091C115.944 30.4091 117.179 30.7008 118.209 31.2841C119.239 31.8598 120.031 32.6212 120.584 33.5682C121.137 34.5152 121.413 35.5379 121.413 36.6364C121.413 37.947 121.069 39.0644 120.379 39.9886C119.697 40.9129 118.769 41.553 117.595 41.9091V42.0909C119.065 42.3333 120.213 42.9583 121.038 43.9659C121.864 44.9659 122.277 46.2045 122.277 47.6818C122.277 48.947 121.932 50.0833 121.243 51.0909C120.561 52.0909 119.629 52.8788 118.447 53.4545C117.266 54.0303 115.921 54.3182 114.413 54.3182Z" fill="black"/>
<path d="M128.288 54H125.334L133.879 30.7273H136.788L145.334 54H142.379L135.425 34.4091H135.243L128.288 54ZM129.379 44.9091H141.288V47.4091H129.379V44.9091Z" fill="black"/>
<path d="M146.959 59.6364V51.5H148.459C148.974 51.0303 149.459 50.3674 149.913 49.5114C150.375 48.6477 150.766 47.4962 151.084 46.0568C151.41 44.6098 151.625 42.7727 151.732 40.5455L152.232 30.7273H166.05V51.5H168.732V59.5909H166.05V54H149.641V59.6364H146.959ZM151.822 51.5H163.368V33.2273H154.777L154.413 40.5455C154.322 42.2424 154.163 43.7803 153.936 45.1591C153.709 46.5303 153.417 47.7462 153.061 48.8068C152.705 49.8598 152.292 50.7576 151.822 51.5Z" fill="black"/>
</svg>
