<svg width="90" height="19" viewBox="0 0 90 19" fill="none" xmlns="http://www.w3.org/2000/svg">
<path d="M15.8409 9.27273C15.8409 11.1136 15.5085 12.7045 14.8438 14.0455C14.179 15.3864 13.267 16.4205 12.108 17.1477C10.9489 17.875 9.625 18.2386 8.13636 18.2386C6.64773 18.2386 5.32386 17.875 4.16477 17.1477C3.00568 16.4205 2.09375 15.3864 1.42898 14.0455C0.764205 12.7045 0.431818 11.1136 0.431818 9.27273C0.431818 7.43182 0.764205 5.84091 1.42898 4.5C2.09375 3.15909 3.00568 2.125 4.16477 1.39773C5.32386 0.670454 6.64773 0.306818 8.13636 0.306818C9.625 0.306818 10.9489 0.670454 12.108 1.39773C13.267 2.125 14.179 3.15909 14.8438 4.5C15.5085 5.84091 15.8409 7.43182 15.8409 9.27273ZM13.7955 9.27273C13.7955 7.76136 13.5426 6.4858 13.0369 5.44602C12.5369 4.40625 11.858 3.61932 11 3.08523C10.1477 2.55114 9.19318 2.28409 8.13636 2.28409C7.07955 2.28409 6.12216 2.55114 5.2642 3.08523C4.41193 3.61932 3.73295 4.40625 3.22727 5.44602C2.72727 6.4858 2.47727 7.76136 2.47727 9.27273C2.47727 10.7841 2.72727 12.0597 3.22727 13.0994C3.73295 14.1392 4.41193 14.9261 5.2642 15.4602C6.12216 15.9943 7.07955 16.2614 8.13636 16.2614C9.19318 16.2614 10.1477 15.9943 11 15.4602C11.858 14.9261 12.5369 14.1392 13.0369 13.0994C13.5426 12.0597 13.7955 10.7841 13.7955 9.27273ZM18.3722 6.78409V4.90909H29.0085V6.78409H24.7131V18H22.7017V6.78409H18.3722ZM31.1243 14.6591H33.272C33.3175 15.25 33.5845 15.6989 34.0732 16.0057C34.5675 16.3125 35.2095 16.4659 35.9993 16.4659C36.8061 16.4659 37.4964 16.3011 38.0703 15.9716C38.6442 15.6364 38.9311 15.0966 38.9311 14.3523C38.9311 13.9148 38.8232 13.5341 38.6072 13.2102C38.3913 12.8807 38.0874 12.625 37.6953 12.4432C37.3033 12.2614 36.8402 12.1705 36.3061 12.1705H34.0561V10.3636H36.3061C37.1072 10.3636 37.6982 10.1818 38.0788 9.81818C38.4652 9.45455 38.6584 9 38.6584 8.45455C38.6584 7.86932 38.451 7.40057 38.0362 7.0483C37.6214 6.69034 37.0334 6.51136 36.272 6.51136C35.505 6.51136 34.8658 6.68466 34.3544 7.03125C33.843 7.37216 33.5732 7.8125 33.5447 8.35227H31.4311C31.4538 7.64773 31.6697 7.02557 32.0788 6.4858C32.4879 5.94034 33.0447 5.5142 33.7493 5.20739C34.4538 4.89489 35.2607 4.73864 36.1697 4.73864C37.0902 4.73864 37.8885 4.90057 38.5646 5.22443C39.2464 5.54261 39.772 5.97727 40.1413 6.52841C40.5163 7.07386 40.7038 7.69318 40.7038 8.38636C40.7038 9.125 40.4964 9.72159 40.0817 10.1761C39.6669 10.6307 39.147 10.9545 38.522 11.1477V11.2841C39.0163 11.3182 39.4453 11.4773 39.8089 11.7614C40.1783 12.0398 40.4652 12.4062 40.6697 12.8608C40.8743 13.3097 40.9766 13.8068 40.9766 14.3523C40.9766 15.1477 40.7635 15.8409 40.3374 16.4318C39.9112 17.017 39.326 17.4716 38.5817 17.7955C37.8374 18.1136 36.9879 18.2727 36.0334 18.2727C35.1072 18.2727 34.2777 18.1222 33.5447 17.821C32.8118 17.5142 32.2294 17.0909 31.7976 16.5511C31.3714 16.0057 31.147 15.375 31.1243 14.6591ZM45.5405 9.64773H49.2905C50.8246 9.64773 51.9979 10.0369 52.8104 10.8153C53.6229 11.5937 54.0291 12.5795 54.0291 13.7727C54.0291 14.5568 53.8473 15.2699 53.4837 15.9119C53.12 16.5483 52.5859 17.0568 51.8814 17.4375C51.1768 17.8125 50.3132 18 49.2905 18H43.8018V4.90909H45.8132V16.125H49.2905C50.0859 16.125 50.7393 15.9148 51.2507 15.4943C51.7621 15.0739 52.0178 14.5341 52.0178 13.875C52.0178 13.1818 51.7621 12.6165 51.2507 12.179C50.7393 11.7415 50.0859 11.5227 49.2905 11.5227H45.5405V9.64773ZM56.1087 18V4.90909H58.12V18H56.1087ZM61.8018 18V4.90909H67.1541C68.5632 4.90909 69.6825 5.22727 70.5121 5.86364C71.3416 6.5 71.7564 7.34091 71.7564 8.38636C71.7564 9.18182 71.5206 9.7983 71.049 10.2358C70.5774 10.6676 69.9723 10.9602 69.2337 11.1136C69.7166 11.1818 70.1854 11.3523 70.6399 11.625C71.1001 11.8977 71.4808 12.2727 71.782 12.75C72.0831 13.2216 72.2337 13.8011 72.2337 14.4886C72.2337 15.1591 72.0632 15.7585 71.7223 16.2869C71.3814 16.8153 70.8928 17.233 70.2564 17.5398C69.62 17.8466 68.8587 18 67.9723 18H61.8018ZM63.7109 16.1591H67.9723C68.6655 16.1591 69.2081 15.9943 69.6001 15.6648C69.9922 15.3352 70.1882 14.8864 70.1882 14.3182C70.1882 13.642 69.9922 13.1108 69.6001 12.7244C69.2081 12.3324 68.6655 12.1364 67.9723 12.1364H63.7109V16.1591ZM63.7109 10.3977H67.1541C67.6939 10.3977 68.157 10.3239 68.5433 10.1761C68.9297 10.0227 69.2251 9.80682 69.4297 9.52841C69.6399 9.24432 69.745 8.90909 69.745 8.52273C69.745 7.97159 69.5149 7.53977 69.0547 7.22727C68.5945 6.90909 67.9609 6.75 67.1541 6.75H63.7109V10.3977ZM77.017 9.64773H80.767C82.3011 9.64773 83.4744 10.0369 84.2869 10.8153C85.0994 11.5937 85.5057 12.5795 85.5057 13.7727C85.5057 14.5568 85.3239 15.2699 84.9602 15.9119C84.5966 16.5483 84.0625 17.0568 83.358 17.4375C82.6534 17.8125 81.7898 18 80.767 18H75.2784V4.90909H77.2898V16.125H80.767C81.5625 16.125 82.2159 15.9148 82.7273 15.4943C83.2386 15.0739 83.4943 14.5341 83.4943 13.875C83.4943 13.1818 83.2386 12.6165 82.7273 12.179C82.2159 11.7415 81.5625 11.5227 80.767 11.5227H77.017V9.64773ZM87.5852 18V4.90909H89.5966V18H87.5852Z" fill="white"/>
</svg>
