<svg width="133" height="23" viewBox="0 0 133 23" fill="none" xmlns="http://www.w3.org/2000/svg">
<path d="M13.1705 0.545454V18H11.0568V2.42045H2.26136V18H0.147727V0.545454H13.1705ZM22.4794 18.2727C21.2976 18.2727 20.2607 17.9915 19.3686 17.429C18.4822 16.8665 17.7891 16.0795 17.2891 15.0682C16.7947 14.0568 16.5476 12.875 16.5476 11.5227C16.5476 10.1591 16.7947 8.96875 17.2891 7.9517C17.7891 6.93466 18.4822 6.14489 19.3686 5.58239C20.2607 5.01989 21.2976 4.73864 22.4794 4.73864C23.6612 4.73864 24.6953 5.01989 25.5817 5.58239C26.4737 6.14489 27.1669 6.93466 27.6612 7.9517C28.1612 8.96875 28.4112 10.1591 28.4112 11.5227C28.4112 12.875 28.1612 14.0568 27.6612 15.0682C27.1669 16.0795 26.4737 16.8665 25.5817 17.429C24.6953 17.9915 23.6612 18.2727 22.4794 18.2727ZM22.4794 16.4659C23.3771 16.4659 24.1158 16.2358 24.6953 15.7756C25.2749 15.3153 25.7038 14.7102 25.9822 13.9602C26.2607 13.2102 26.3999 12.3977 26.3999 11.5227C26.3999 10.6477 26.2607 9.83239 25.9822 9.0767C25.7038 8.32102 25.2749 7.71023 24.6953 7.24432C24.1158 6.77841 23.3771 6.54545 22.4794 6.54545C21.5817 6.54545 20.843 6.77841 20.2635 7.24432C19.6839 7.71023 19.255 8.32102 18.9766 9.0767C18.6982 9.83239 18.5589 10.6477 18.5589 11.5227C18.5589 12.3977 18.6982 13.2102 18.9766 13.9602C19.255 14.7102 19.6839 15.3153 20.2635 15.7756C20.843 16.2358 21.5817 16.4659 22.4794 16.4659ZM30.0838 21.75V16.125H31.1747C31.4418 15.8466 31.6719 15.5455 31.8651 15.2216C32.0582 14.8977 32.2259 14.5142 32.3679 14.071C32.5156 13.6222 32.6406 13.0767 32.7429 12.4347C32.8452 11.7869 32.9361 11.0057 33.0156 10.0909L33.4588 4.90909H41.777V16.125H43.7884V21.75H41.777V18H32.0952V21.75H30.0838ZM33.4588 16.125H39.7656V6.78409H35.3338L34.9929 10.0909C34.8509 11.4602 34.6747 12.6562 34.4645 13.679C34.2543 14.7017 33.919 15.517 33.4588 16.125ZM45.0604 21.75V16.125H46.1513C46.4183 15.8466 46.6484 15.5455 46.8416 15.2216C47.0348 14.8977 47.2024 14.5142 47.3445 14.071C47.4922 13.6222 47.6172 13.0767 47.7195 12.4347C47.8217 11.7869 47.9126 11.0057 47.9922 10.0909L48.4354 4.90909H56.7536V16.125H58.7649V21.75H56.7536V18H47.0717V21.75H45.0604ZM48.4354 16.125H54.7422V6.78409H50.3104L49.9695 10.0909C49.8274 11.4602 49.6513 12.6562 49.4411 13.679C49.2308 14.7017 48.8956 15.517 48.4354 16.125ZM66.9233 18.2727C65.6619 18.2727 64.5739 17.9943 63.6591 17.4375C62.75 16.875 62.0483 16.0909 61.554 15.0852C61.0653 14.0739 60.821 12.8977 60.821 11.5568C60.821 10.2159 61.0653 9.03409 61.554 8.01136C62.0483 6.98295 62.7358 6.18182 63.6165 5.60795C64.5028 5.02841 65.5369 4.73864 66.7188 4.73864C67.4006 4.73864 68.0739 4.85227 68.7386 5.07954C69.4034 5.30682 70.0085 5.67614 70.554 6.1875C71.0994 6.69318 71.5341 7.36364 71.858 8.19886C72.1818 9.03409 72.3438 10.0625 72.3438 11.2841V12.1364H62.2528V10.3977H70.2983C70.2983 9.65909 70.1506 9 69.8551 8.42045C69.5653 7.84091 69.1506 7.38352 68.6108 7.0483C68.0767 6.71307 67.446 6.54545 66.7188 6.54545C65.9176 6.54545 65.2244 6.74432 64.6392 7.14205C64.0597 7.53409 63.6136 8.04545 63.3011 8.67614C62.9886 9.30682 62.8324 9.98295 62.8324 10.7045V11.8636C62.8324 12.8523 63.0028 13.6903 63.3438 14.3778C63.6903 15.0597 64.1705 15.5795 64.7841 15.9375C65.3977 16.2898 66.1108 16.4659 66.9233 16.4659C67.4517 16.4659 67.929 16.392 68.3551 16.2443C68.7869 16.0909 69.1591 15.8636 69.4716 15.5625C69.7841 15.2557 70.0256 14.875 70.196 14.4205L72.1392 14.9659C71.9347 15.625 71.5909 16.2045 71.108 16.7045C70.625 17.1989 70.0284 17.5852 69.3182 17.8636C68.608 18.1364 67.8097 18.2727 66.9233 18.2727ZM75.4034 22.9091V4.90909H77.3466V6.98864H77.5852C77.733 6.76136 77.9375 6.47159 78.1989 6.11932C78.4659 5.76136 78.8466 5.44318 79.3409 5.16477C79.8409 4.88068 80.517 4.73864 81.3693 4.73864C82.4716 4.73864 83.4432 5.0142 84.2841 5.56534C85.125 6.11648 85.7813 6.89773 86.2528 7.90909C86.7244 8.92045 86.9602 10.1136 86.9602 11.4886C86.9602 12.875 86.7244 14.0767 86.2528 15.0938C85.7813 16.1051 85.1278 16.8892 84.2926 17.446C83.4574 17.9972 82.4943 18.2727 81.4034 18.2727C80.5625 18.2727 79.8892 18.1335 79.3835 17.8551C78.8778 17.571 78.4886 17.25 78.2159 16.892C77.9432 16.5284 77.733 16.2273 77.5852 15.9886H77.4148V22.9091H75.4034ZM77.3807 11.4545C77.3807 12.4432 77.5256 13.3153 77.8153 14.071C78.1051 14.821 78.5284 15.4091 79.0852 15.8352C79.642 16.2557 80.3239 16.4659 81.1307 16.4659C81.9716 16.4659 82.6733 16.2443 83.2358 15.8011C83.804 15.3523 84.2301 14.75 84.5142 13.9943C84.804 13.233 84.9489 12.3864 84.9489 11.4545C84.9489 10.5341 84.8068 9.70455 84.5227 8.96591C84.2443 8.22159 83.821 7.63352 83.2528 7.2017C82.6903 6.7642 81.983 6.54545 81.1307 6.54545C80.3125 6.54545 79.625 6.75284 79.0682 7.16761C78.5114 7.5767 78.0909 8.15057 77.8068 8.8892C77.5227 9.62216 77.3807 10.4773 77.3807 11.4545ZM88.6712 18L93.9893 11.3523L88.7393 4.90909H91.1257L95.4893 10.5H96.5803V4.90909H98.5916V10.5H99.6484L104.012 4.90909H106.398L101.183 11.3523L106.467 18H104.046L99.6143 12.375H98.5916V18H96.5803V12.375H95.5575L91.0916 18H88.6712ZM109.341 18V4.90909H111.352V10.6023H112.682L117.386 4.90909H119.977L114.693 11.2159L120.045 18H117.455L113.159 12.4773H111.352V18H109.341ZM126.084 18.3068C125.254 18.3068 124.501 18.1506 123.825 17.8381C123.149 17.5199 122.612 17.0625 122.214 16.4659C121.817 15.8636 121.618 15.1364 121.618 14.2841C121.618 13.5341 121.766 12.9261 122.061 12.4602C122.357 11.9886 122.751 11.6193 123.246 11.3523C123.74 11.0852 124.286 10.8864 124.882 10.7557C125.484 10.6193 126.089 10.5114 126.697 10.4318C127.493 10.3295 128.138 10.2528 128.632 10.2017C129.132 10.1449 129.496 10.0511 129.723 9.92045C129.956 9.78977 130.072 9.5625 130.072 9.23864V9.17045C130.072 8.32955 129.842 7.67614 129.382 7.21023C128.928 6.74432 128.237 6.51136 127.311 6.51136C126.351 6.51136 125.598 6.72159 125.053 7.14205C124.507 7.5625 124.124 8.01136 123.902 8.48864L121.993 7.80682C122.334 7.01136 122.788 6.39205 123.357 5.94886C123.93 5.5 124.555 5.1875 125.232 5.01136C125.913 4.82955 126.584 4.73864 127.243 4.73864C127.663 4.73864 128.146 4.78977 128.692 4.89204C129.243 4.98864 129.774 5.19034 130.286 5.49716C130.803 5.80398 131.232 6.26705 131.572 6.88636C131.913 7.50568 132.084 8.33523 132.084 9.375V18H130.072V16.2273H129.97C129.834 16.5114 129.607 16.8153 129.288 17.1392C128.97 17.4631 128.547 17.7386 128.018 17.9659C127.49 18.1932 126.845 18.3068 126.084 18.3068ZM126.391 16.5C127.186 16.5 127.857 16.3438 128.402 16.0312C128.953 15.7188 129.368 15.3153 129.646 14.821C129.93 14.3267 130.072 13.8068 130.072 13.2614V11.4205C129.987 11.5227 129.8 11.6165 129.51 11.7017C129.226 11.7812 128.896 11.8523 128.521 11.9148C128.152 11.9716 127.791 12.0227 127.439 12.0682C127.092 12.108 126.811 12.142 126.595 12.1705C126.072 12.2386 125.584 12.3494 125.129 12.5028C124.68 12.6506 124.317 12.875 124.038 13.1761C123.766 13.4716 123.629 13.875 123.629 14.3864C123.629 15.0852 123.888 15.6136 124.405 15.9716C124.928 16.3239 125.589 16.5 126.391 16.5Z" fill="white"/>
</svg>
