<svg width="95" height="19" viewBox="0 0 95 19" fill="none" xmlns="http://www.w3.org/2000/svg">
<path d="M15.1591 6H13.0455C12.9205 5.39205 12.7017 4.85795 12.3892 4.39773C12.0824 3.9375 11.7074 3.55114 11.2642 3.23864C10.8267 2.92045 10.3409 2.68182 9.80682 2.52273C9.27273 2.36364 8.71591 2.28409 8.13636 2.28409C7.07955 2.28409 6.12216 2.55114 5.2642 3.08523C4.41193 3.61932 3.73295 4.40625 3.22727 5.44602C2.72727 6.4858 2.47727 7.76136 2.47727 9.27273C2.47727 10.7841 2.72727 12.0597 3.22727 13.0994C3.73295 14.1392 4.41193 14.9261 5.2642 15.4602C6.12216 15.9943 7.07955 16.2614 8.13636 16.2614C8.71591 16.2614 9.27273 16.1818 9.80682 16.0227C10.3409 15.8636 10.8267 15.6278 11.2642 15.3153C11.7074 14.9972 12.0824 14.608 12.3892 14.1477C12.7017 13.6818 12.9205 13.1477 13.0455 12.5455H15.1591C15 13.4375 14.7102 14.2358 14.2898 14.9403C13.8693 15.6449 13.3466 16.2443 12.7216 16.7386C12.0966 17.2273 11.3949 17.5994 10.6165 17.8551C9.84375 18.1108 9.01705 18.2386 8.13636 18.2386C6.64773 18.2386 5.32386 17.875 4.16477 17.1477C3.00568 16.4205 2.09375 15.3864 1.42898 14.0455C0.764205 12.7045 0.431818 11.1136 0.431818 9.27273C0.431818 7.43182 0.764205 5.84091 1.42898 4.5C2.09375 3.15909 3.00568 2.125 4.16477 1.39773C5.32386 0.670454 6.64773 0.306818 8.13636 0.306818C9.01705 0.306818 9.84375 0.434659 10.6165 0.690341C11.3949 0.946023 12.0966 1.32102 12.7216 1.81534C13.3466 2.30398 13.8693 2.90057 14.2898 3.60511C14.7102 4.30398 15 5.10227 15.1591 6ZM18.3018 18V4.90909H20.3132V10.6023H21.6428L26.3473 4.90909H28.9382L23.6541 11.2159L29.0064 18H26.4155L22.12 12.4773H20.3132V18H18.3018ZM35.0447 18.3068C34.2152 18.3068 33.4624 18.1506 32.7862 17.8381C32.1101 17.5199 31.5732 17.0625 31.1754 16.4659C30.7777 15.8636 30.5788 15.1364 30.5788 14.2841C30.5788 13.5341 30.7266 12.9261 31.022 12.4602C31.3175 11.9886 31.7124 11.6193 32.2067 11.3523C32.701 11.0852 33.2464 10.8864 33.843 10.7557C34.4453 10.6193 35.0504 10.5114 35.6584 10.4318C36.4538 10.3295 37.0987 10.2528 37.593 10.2017C38.093 10.1449 38.4567 10.0511 38.6839 9.92045C38.9169 9.78977 39.0334 9.5625 39.0334 9.23864V9.17045C39.0334 8.32955 38.8033 7.67614 38.343 7.21023C37.8885 6.74432 37.1982 6.51136 36.272 6.51136C35.3118 6.51136 34.5589 6.72159 34.0135 7.14205C33.468 7.5625 33.0845 8.01136 32.8629 8.48864L30.9538 7.80682C31.2947 7.01136 31.7493 6.39205 32.3175 5.94886C32.8913 5.5 33.5163 5.1875 34.1925 5.01136C34.8743 4.82955 35.5447 4.73864 36.2038 4.73864C36.6243 4.73864 37.1072 4.78977 37.6527 4.89204C38.2038 4.98864 38.7351 5.19034 39.2464 5.49716C39.7635 5.80398 40.1925 6.26705 40.5334 6.88636C40.8743 7.50568 41.0447 8.33523 41.0447 9.375V18H39.0334V16.2273H38.9311C38.7947 16.5114 38.5675 16.8153 38.2493 17.1392C37.9311 17.4631 37.5078 17.7386 36.9794 17.9659C36.451 18.1932 35.8061 18.3068 35.0447 18.3068ZM35.3516 16.5C36.147 16.5 36.8175 16.3438 37.3629 16.0312C37.9141 15.7188 38.3288 15.3153 38.6072 14.821C38.8913 14.3267 39.0334 13.8068 39.0334 13.2614V11.4205C38.9482 11.5227 38.7607 11.6165 38.4709 11.7017C38.1868 11.7812 37.8572 11.8523 37.4822 11.9148C37.1129 11.9716 36.7521 12.0227 36.3999 12.0682C36.0533 12.108 35.772 12.142 35.5561 12.1705C35.0334 12.2386 34.5447 12.3494 34.0902 12.5028C33.6413 12.6506 33.2777 12.875 32.9993 13.1761C32.7266 13.4716 32.5902 13.875 32.5902 14.3864C32.5902 15.0852 32.8487 15.6136 33.3658 15.9716C33.8885 16.3239 34.5504 16.5 35.3516 16.5ZM54.8068 4.90909V18H52.7955V4.90909H54.8068ZM54.0227 11.1477V13.0227C53.5682 13.1932 53.1165 13.3438 52.6676 13.4744C52.2188 13.5994 51.7472 13.6989 51.2528 13.7727C50.7585 13.8409 50.2159 13.875 49.625 13.875C48.142 13.875 46.9517 13.4744 46.054 12.6733C45.1619 11.8722 44.7159 10.6705 44.7159 9.06818V4.875H46.7273V9.06818C46.7273 9.73864 46.8551 10.2898 47.1108 10.7216C47.3665 11.1534 47.7131 11.4744 48.1506 11.6847C48.5881 11.8949 49.0795 12 49.625 12C50.4773 12 51.2472 11.9233 51.9347 11.7699C52.6278 11.6108 53.3239 11.4034 54.0227 11.1477ZM62.3494 18.3068C61.5199 18.3068 60.767 18.1506 60.0909 17.8381C59.4148 17.5199 58.8778 17.0625 58.4801 16.4659C58.0824 15.8636 57.8835 15.1364 57.8835 14.2841C57.8835 13.5341 58.0313 12.9261 58.3267 12.4602C58.6222 11.9886 59.017 11.6193 59.5114 11.3523C60.0057 11.0852 60.5511 10.8864 61.1477 10.7557C61.75 10.6193 62.3551 10.5114 62.9631 10.4318C63.7585 10.3295 64.4034 10.2528 64.8977 10.2017C65.3977 10.1449 65.7614 10.0511 65.9886 9.92045C66.2216 9.78977 66.3381 9.5625 66.3381 9.23864V9.17045C66.3381 8.32955 66.108 7.67614 65.6477 7.21023C65.1932 6.74432 64.5028 6.51136 63.5767 6.51136C62.6165 6.51136 61.8636 6.72159 61.3182 7.14205C60.7727 7.5625 60.3892 8.01136 60.1676 8.48864L58.2585 7.80682C58.5994 7.01136 59.054 6.39205 59.6222 5.94886C60.196 5.5 60.821 5.1875 61.4972 5.01136C62.179 4.82955 62.8494 4.73864 63.5085 4.73864C63.929 4.73864 64.4119 4.78977 64.9574 4.89204C65.5085 4.98864 66.0398 5.19034 66.5511 5.49716C67.0682 5.80398 67.4972 6.26705 67.8381 6.88636C68.179 7.50568 68.3494 8.33523 68.3494 9.375V18H66.3381V16.2273H66.2358C66.0994 16.5114 65.8722 16.8153 65.554 17.1392C65.2358 17.4631 64.8125 17.7386 64.2841 17.9659C63.7557 18.1932 63.1108 18.3068 62.3494 18.3068ZM62.6562 16.5C63.4517 16.5 64.1222 16.3438 64.6676 16.0312C65.2188 15.7188 65.6335 15.3153 65.9119 14.821C66.196 14.3267 66.3381 13.8068 66.3381 13.2614V11.4205C66.2528 11.5227 66.0653 11.6165 65.7756 11.7017C65.4915 11.7812 65.1619 11.8523 64.7869 11.9148C64.4176 11.9716 64.0568 12.0227 63.7045 12.0682C63.358 12.108 63.0767 12.142 62.8608 12.1705C62.3381 12.2386 61.8494 12.3494 61.3949 12.5028C60.946 12.6506 60.5824 12.875 60.304 13.1761C60.0313 13.4716 59.8949 13.875 59.8949 14.3864C59.8949 15.0852 60.1534 15.6136 60.6705 15.9716C61.1932 16.3239 61.8551 16.5 62.6562 16.5ZM70.2393 6.78409V4.90909H80.8757V6.78409H76.5803V18H74.5689V6.78409H70.2393ZM85.5483 9.64773H89.2983C90.8324 9.64773 92.0057 10.0369 92.8182 10.8153C93.6307 11.5937 94.0369 12.5795 94.0369 13.7727C94.0369 14.5568 93.8551 15.2699 93.4915 15.9119C93.1278 16.5483 92.5938 17.0568 91.8892 17.4375C91.1847 17.8125 90.321 18 89.2983 18H83.8097V4.90909H85.821V16.125H89.2983C90.0938 16.125 90.7472 15.9148 91.2585 15.4943C91.7699 15.0739 92.0256 14.5341 92.0256 13.875C92.0256 13.1818 91.7699 12.6165 91.2585 12.179C90.7472 11.7415 90.0938 11.5227 89.2983 11.5227H85.5483V9.64773Z" fill="white"/>
</svg>
